{"title":"Sex And The City 2. 2010 TS XVID.FEEL-FREE","uid":5708088,"size":1694054736,"categoryP":"video","categoryS":"movies","magnet":"?xt=urn:btih:47cb3de84f9b451ea9ec0afc6d27c38c07d36de6&amp;dn=Sex+And+The+City+2.+2010+TS+XVID.FEEL-FREE&amp;tr=udp%3A%2F%2Ftracker.openbittorrent.com%3A80&amp;tr=udp%3A%2F%2Fopen.demonii.com%3A1337&amp;tr=udp%3A%2F%2Ftracker.coppersurfer.tk%3A6969&amp;tr=udp%3A%2F%2Fexodus.desync.com%3A6969","seeders":0,"leechers":1,"uploader":"hiest","files":10,"time":1279775596,"description":"Genre:Comedy/Drama/Romance\nLanguage:English\nIMDb:http://www.imdb.com/title/tt1261945/\nSource Video:Relizlab.Thanks!\nSource Audio:OWN PRISM&amp;LKRG.Thanks!\nSample:YES\nSubtitles: ROMANA\nEncoder: Tony2\n.............................................\nGeneral\nComplete name : Sex And The City 2. 2010 TS XVID.FEEL-FREE\nFormat : AVI\nFormat/Info : Audio Video Interleave\nFile size : 1.56 GiB\nDuration : 2h 16mn\nOverall bit rate : 1 640 Kbps\n..............................................\nVideo\nID : 0\nFormat : MPEG-4 Visual\nFormat profile : Simple@L3\nFormat settings, BVOP : Yes\nFormat settings, QPel : No\nFormat settings, GMC : No warppoints\nFormat settings, Matrix : Default (H.263)\nCodec ID : XVID\nCodec ID/Hint : XviD\nDuration : 2h 16mn\nBit rate : 1 500 Kbps\nWidth : 656 pixels\nHeight : 328 pixels\nDisplay aspect ratio : 2.000\nFrame rate : 25.000 fps\nResolution : 24 bits\nScan type : Progressive\nBits/(Pixel*Frame) : 0.279\nStream size : 1.43 GiB (91%)\n...............................................\nAudio\nID : 1\nFormat : MPEG Audio\nFormat version : Version 1\nFormat profile : Layer 3\nFormat settings, Mode : Joint stereo / MS Stereo\nCodec ID : 55\nCodec ID/Hint : MP3\nDuration : 2h 16mn\nBit rate mode : Constant\nBit rate : 128 Kbps\nChannel(s) : 2 channels\nSampling rate : 44.1 KHz\nResolution : 16 bits\nStream size : 125 MiB (8%)\nAlignment : Aligned on interleaves\nInterleave, duration : 26 ms (0.65 video frame)\n................................................\nPlot:\nWhile wrestling with the pressures of life, love, and work in Manhattan, Carrie, Miranda,\nand Charlotte join Samantha for a trip to Morocco, where Samantha's ex is filming a new movie\n...................................................\nScreenshots:\n &lt;a href=&quot;\nhttp://postimg.com/image/19000/18212.jpg&quot; rel=&quot;nofollow&quot; target=&quot;_NEW&quot;&gt;\nhttp://postimg.com/image/19000/18212.jpg&lt;/a&gt;\n &lt;a href=&quot;\nhttp://postimg.com/image/19000/18213.jpg&quot; rel=&quot;nofollow&quot; target=&quot;_NEW&quot;&gt;\nhttp://postimg.com/image/19000/18213.jpg&lt;/a&gt;\n\n........................................................","torrent":{"xt":"urn:btih:47cb3de84f9b451ea9ec0afc6d27c38c07d36de6","amp;dn":"Sex+And+The+City+2.+2010+TS+XVID.FEEL-FREE","amp;tr":["udp%3A%2F%2Ftracker.openbittorrent.com%3A80","udp%3A%2F%2Fopen.demonii.com%3A1337","udp%3A%2F%2Ftracker.coppersurfer.tk%3A6969","udp%3A%2F%2Fexodus.desync.com%3A6969"],"infoHash":"47cb3de84f9b451ea9ec0afc6d27c38c07d36de6","infoHashBuffer":{"type":"Buffer","data":[71,203,61,232,79,155,69,30,169,236,10,252,109,39,195,140,7,211,109,230]},"announce":[],"urlList":[]}}